<svg width="658" height="791" viewBox="0 0 658 791" fill="none" xmlns="http://www.w3.org/2000/svg">
<path fill-rule="evenodd" clip-rule="evenodd" d="M381.341 226.811C401.989 226.811 418.727 210.072 418.727 189.424C418.727 182.094 416.617 175.256 412.972 169.485H563.288V271.183C568.472 269.876 573.899 269.182 579.489 269.182C615.967 269.182 645.538 298.753 645.538 335.231C645.538 371.709 615.967 401.28 579.489 401.28C573.899 401.28 568.472 400.586 563.288 399.279V446.144H286.629V169.485H349.71C346.064 175.256 343.955 182.094 343.955 189.424C343.955 210.072 360.693 226.811 381.341 226.811Z" fill="#2CC679"/>
<path fill-rule="evenodd" clip-rule="evenodd" d="M286.629 456.114H563.288V513.914C573.345 504.353 586.948 498.485 601.92 498.485C632.892 498.485 658 523.593 658 554.564C658 585.536 632.892 610.644 601.92 610.644C586.948 610.644 573.345 604.776 563.288 595.215V732.773H416.404C419.473 738.312 421.22 744.685 421.22 751.466C421.22 772.802 403.923 790.099 382.587 790.099C361.251 790.099 343.955 772.802 343.955 751.466C343.955 744.685 345.702 738.312 348.77 732.773H286.629V456.114Z" fill="#F1598C"/>
<path fill-rule="evenodd" clip-rule="evenodd" d="M0 398.788H276.659V675.447H226.217C237.39 663.803 244.258 647.995 244.258 630.583C244.258 594.794 215.244 565.78 179.455 565.78C143.665 565.78 114.652 594.794 114.652 630.583C114.652 647.995 121.519 663.803 132.692 675.447H0V535.366C10.242 546.408 24.8765 553.318 41.125 553.318C72.0969 553.318 97.2045 528.21 97.2045 497.239C97.2045 466.267 72.0969 441.159 41.125 441.159C24.8765 441.159 10.242 448.069 0 459.111V398.788Z" fill="#F3C500"/>
<path fill-rule="evenodd" clip-rule="evenodd" d="M221.95 109.667C234.155 98.0853 241.765 81.7098 241.765 63.5568C241.765 28.4554 213.31 0 178.208 0C143.107 0 114.652 28.4554 114.652 63.5568C114.652 81.7098 122.262 98.0853 134.466 109.667H0V210.515C4.03853 209.759 8.20414 209.364 12.4621 209.364C49.6284 209.364 79.7576 239.493 79.7576 276.659C79.7576 313.825 49.6284 343.955 12.4621 343.955C8.20414 343.955 4.03853 343.559 0 342.803V386.326H276.659V109.667H221.95Z" fill="#40CEF4"/>
</svg>
