<svg width="194" height="195" viewBox="0 0 194 195" fill="none" xmlns="http://www.w3.org/2000/svg">
<mask id="mask0" mask-type="alpha" maskUnits="userSpaceOnUse" x="0" y="0" width="194" height="195">
<ellipse cx="96.6502" cy="97.3366" rx="71" ry="68" transform="rotate(54.3089 96.6502 97.3366)" fill="#C4C4C4"/>
</mask>
<g mask="url(#mask0)">
<rect x="116.953" y="-4.66724" width="71" height="77" transform="rotate(54.3089 116.953 -4.66724)" fill="#2CC679"/>
<path fill-rule="evenodd" clip-rule="evenodd" d="M199.798 110.661L158.375 52.9971L145.752 62.0647C145.394 60.9629 144.863 59.8969 144.151 58.9057C140.445 53.7473 133.26 52.5695 128.101 56.275C122.943 59.9804 121.765 67.1659 125.471 72.3242C126.183 73.3154 127.023 74.1596 127.953 74.8505L95.8379 97.92L137.26 155.584L199.798 110.661Z" fill="#FF0E5B"/>
<path fill-rule="evenodd" clip-rule="evenodd" d="M79.708 65.1813C78.5619 66.0046 77.3112 66.5759 76.0218 66.9059L97.4623 96.7532L80.2447 109.121C81.7427 109.892 83.0855 111.02 84.1359 112.482C87.6802 117.416 86.5536 124.29 81.6195 127.834C76.6855 131.378 69.8124 130.252 66.2681 125.318C65.2176 123.855 64.5775 122.223 64.3251 120.557L34.9249 141.676L-6.4976 84.0119L56.0398 39.0889L64.0617 50.2562C64.7861 49.1397 65.7268 48.1368 66.8729 47.3135C71.807 43.7692 78.6801 44.8958 82.2244 49.8298C85.7687 54.7639 84.6421 61.637 79.708 65.1813Z" fill="#0070D2"/>
<path fill-rule="evenodd" clip-rule="evenodd" d="M137.466 145.586C136.32 146.41 135.069 146.981 133.78 147.311L138.885 154.418L113.708 172.503L97.6436 184.043L82.6653 194.802L76.3475 199.341L54.1777 168.478L34.925 141.676L44.2767 134.959C41.8914 134.33 39.7021 132.9 38.1507 130.74C34.6064 125.806 35.733 118.933 40.667 115.389C45.6011 111.844 52.4742 112.971 56.0185 117.905C57.57 120.065 58.2264 122.596 58.0603 125.057L97.4624 96.7532L121.82 130.661C122.544 129.545 123.485 128.542 124.631 127.719C129.565 124.174 136.438 125.301 139.983 130.235C143.527 135.169 142.4 142.042 137.466 145.586Z" fill="#FFC562"/>
<path fill-rule="evenodd" clip-rule="evenodd" d="M100.452 76.9187L97.3736 72.6331L83.4457 82.6381L80.3194 78.286L73.7354 92.8618L89.6504 91.2757L86.5241 86.9236L100.452 76.9187Z" fill="#2CC679"/>
<path fill-rule="evenodd" clip-rule="evenodd" d="M94.4688 116.583L97.5473 120.868L111.475 110.863L114.602 115.216L121.185 100.64L105.27 102.226L108.397 106.578L94.4688 116.583Z" fill="#FFC562"/>
<path fill-rule="evenodd" clip-rule="evenodd" d="M117.297 99.7431L121.582 96.6646L111.577 82.7367L115.93 79.6104L101.354 73.0265L102.94 88.9415L107.292 85.8152L117.297 99.7431Z" fill="#FF0E5B"/>
<path fill-rule="evenodd" clip-rule="evenodd" d="M77.6328 93.7599L73.3472 96.8383L83.3522 110.766L79.0001 113.893L93.5759 120.476L91.9898 104.561L87.6377 107.688L77.6328 93.7599Z" fill="#0070D2"/>
</g>
</svg>
